<mxfile host="app.diagrams.net" modified="2022-09-15T09:26:19.528Z" agent="5.0 (Windows NT 10.0; Win64; x64) AppleWebKit/537.36 (KHTML, like Gecko) Chrome/105.0.0.0 Safari/537.36" etag="w1ySZqiFrFFz3PJUcjQp" version="20.3.0" type="github">
  <diagram id="_ed5Ie70IK8rOZUXOMIM" name="페이지-1">
    <mxGraphModel dx="233" dy="240" grid="1" gridSize="10" guides="1" tooltips="1" connect="1" arrows="1" fold="1" page="1" pageScale="1" pageWidth="827" pageHeight="1169" math="0" shadow="0">
      <root>
        <mxCell id="0" />
        <mxCell id="1" parent="0" />
        <mxCell id="CLhpaCxULuJum5mX2Jai-4" value="" style="rounded=1;whiteSpace=wrap;html=1;fillColor=#e1d5e7;strokeColor=#9673a6;" parent="1" vertex="1">
          <mxGeometry x="200" y="240" width="280" height="160" as="geometry" />
        </mxCell>
        <mxCell id="CLhpaCxULuJum5mX2Jai-8" value="" style="rounded=0;whiteSpace=wrap;html=1;fillColor=none;dashed=1;" parent="1" vertex="1">
          <mxGeometry x="145" y="92.5" width="185" height="197.5" as="geometry" />
        </mxCell>
        <mxCell id="CLhpaCxULuJum5mX2Jai-7" value="Pod" style="rounded=0;whiteSpace=wrap;html=1;fillColor=#dae8fc;strokeColor=#6c8ebf;" parent="1" vertex="1">
          <mxGeometry x="150" y="105" width="80" height="40" as="geometry" />
        </mxCell>
        <mxCell id="CLhpaCxULuJum5mX2Jai-10" value="" style="rounded=0;whiteSpace=wrap;html=1;fillColor=none;dashed=1;" parent="1" vertex="1">
          <mxGeometry x="145" y="320" width="390" height="100" as="geometry" />
        </mxCell>
        <mxCell id="CLhpaCxULuJum5mX2Jai-14" style="edgeStyle=orthogonalEdgeStyle;rounded=0;orthogonalLoop=1;jettySize=auto;html=1;exitX=0.5;exitY=0;exitDx=0;exitDy=0;entryX=0.5;entryY=1;entryDx=0;entryDy=0;endArrow=none;endFill=0;" parent="1" source="CLhpaCxULuJum5mX2Jai-13" target="CLhpaCxULuJum5mX2Jai-12" edge="1">
          <mxGeometry relative="1" as="geometry" />
        </mxCell>
        <mxCell id="CLhpaCxULuJum5mX2Jai-28" style="edgeStyle=orthogonalEdgeStyle;rounded=0;orthogonalLoop=1;jettySize=auto;html=1;exitX=0.5;exitY=1;exitDx=0;exitDy=0;endArrow=none;endFill=0;" parent="1" source="CLhpaCxULuJum5mX2Jai-13" edge="1">
          <mxGeometry relative="1" as="geometry">
            <mxPoint x="340" y="440" as="targetPoint" />
          </mxGeometry>
        </mxCell>
        <mxCell id="CLhpaCxULuJum5mX2Jai-13" value="Physical&lt;br&gt;Interface" style="rounded=0;whiteSpace=wrap;html=1;fillColor=#fff2cc;strokeColor=#d6b656;" parent="1" vertex="1">
          <mxGeometry x="300" y="360" width="80" height="40" as="geometry" />
        </mxCell>
        <mxCell id="rknLdEiRozt7GPBERz-3-5" style="edgeStyle=orthogonalEdgeStyle;rounded=0;orthogonalLoop=1;jettySize=auto;html=1;exitX=0.75;exitY=0;exitDx=0;exitDy=0;entryX=0.5;entryY=1;entryDx=0;entryDy=0;endArrow=none;endFill=0;" edge="1" parent="1" source="CLhpaCxULuJum5mX2Jai-12" target="rknLdEiRozt7GPBERz-3-4">
          <mxGeometry relative="1" as="geometry" />
        </mxCell>
        <mxCell id="rknLdEiRozt7GPBERz-3-6" style="edgeStyle=orthogonalEdgeStyle;rounded=0;orthogonalLoop=1;jettySize=auto;html=1;exitX=0.25;exitY=0;exitDx=0;exitDy=0;entryX=0.5;entryY=1;entryDx=0;entryDy=0;endArrow=none;endFill=0;" edge="1" parent="1" source="CLhpaCxULuJum5mX2Jai-12" target="rknLdEiRozt7GPBERz-3-3">
          <mxGeometry relative="1" as="geometry" />
        </mxCell>
        <mxCell id="CLhpaCxULuJum5mX2Jai-12" value="IPTables&lt;br&gt;(Port Forwarding)" style="rounded=0;whiteSpace=wrap;html=1;fillColor=#f5f5f5;strokeColor=#666666;fontColor=#333333;" parent="1" vertex="1">
          <mxGeometry x="280" y="295" width="120" height="50" as="geometry" />
        </mxCell>
        <mxCell id="CLhpaCxULuJum5mX2Jai-18" value="Pod" style="rounded=0;whiteSpace=wrap;html=1;fillColor=#dae8fc;strokeColor=#6c8ebf;" parent="1" vertex="1">
          <mxGeometry x="240" y="105" width="80" height="40" as="geometry" />
        </mxCell>
        <mxCell id="CLhpaCxULuJum5mX2Jai-24" value="Pod" style="rounded=0;whiteSpace=wrap;html=1;fillColor=#dae8fc;strokeColor=#6c8ebf;" parent="1" vertex="1">
          <mxGeometry x="150" y="182.5" width="80" height="40" as="geometry" />
        </mxCell>
        <mxCell id="CLhpaCxULuJum5mX2Jai-29" value="EXTERNAL NET" style="text;html=1;strokeColor=none;fillColor=none;align=center;verticalAlign=middle;whiteSpace=wrap;rounded=0;dashed=1;horizontal=0;" parent="1" vertex="1">
          <mxGeometry x="115" y="312.5" width="30" height="115" as="geometry" />
        </mxCell>
        <mxCell id="CLhpaCxULuJum5mX2Jai-31" value="Cluster NET" style="text;html=1;strokeColor=none;fillColor=none;align=center;verticalAlign=middle;whiteSpace=wrap;rounded=0;dashed=1;horizontal=0;" parent="1" vertex="1">
          <mxGeometry x="115" y="67.5" width="30" height="115" as="geometry" />
        </mxCell>
        <mxCell id="CLhpaCxULuJum5mX2Jai-32" value="HOST" style="text;html=1;align=center;verticalAlign=middle;whiteSpace=wrap;rounded=0;dashed=1;fontColor=#FFFFFF;fontStyle=1;fontSize=21;" parent="1" vertex="1">
          <mxGeometry x="220" y="355" width="60" height="30" as="geometry" />
        </mxCell>
        <mxCell id="rknLdEiRozt7GPBERz-3-10" style="edgeStyle=orthogonalEdgeStyle;rounded=0;orthogonalLoop=1;jettySize=auto;html=1;exitX=0.5;exitY=0;exitDx=0;exitDy=0;entryX=0.5;entryY=1;entryDx=0;entryDy=0;endArrow=none;endFill=0;" edge="1" parent="1" source="rknLdEiRozt7GPBERz-3-3" target="rknLdEiRozt7GPBERz-3-8">
          <mxGeometry relative="1" as="geometry" />
        </mxCell>
        <mxCell id="rknLdEiRozt7GPBERz-3-11" style="edgeStyle=orthogonalEdgeStyle;rounded=0;orthogonalLoop=1;jettySize=auto;html=1;entryX=0.5;entryY=1;entryDx=0;entryDy=0;endArrow=none;endFill=0;" edge="1" parent="1" source="rknLdEiRozt7GPBERz-3-3" target="CLhpaCxULuJum5mX2Jai-24">
          <mxGeometry relative="1" as="geometry" />
        </mxCell>
        <mxCell id="rknLdEiRozt7GPBERz-3-12" style="edgeStyle=orthogonalEdgeStyle;rounded=0;orthogonalLoop=1;jettySize=auto;html=1;entryX=0.5;entryY=1;entryDx=0;entryDy=0;endArrow=none;endFill=0;" edge="1" parent="1" source="rknLdEiRozt7GPBERz-3-3" target="CLhpaCxULuJum5mX2Jai-18">
          <mxGeometry relative="1" as="geometry">
            <Array as="points">
              <mxPoint x="235" y="260" />
              <mxPoint x="235" y="170" />
              <mxPoint x="280" y="170" />
            </Array>
          </mxGeometry>
        </mxCell>
        <mxCell id="rknLdEiRozt7GPBERz-3-13" style="edgeStyle=orthogonalEdgeStyle;rounded=0;orthogonalLoop=1;jettySize=auto;html=1;entryX=0.5;entryY=1;entryDx=0;entryDy=0;endArrow=none;endFill=0;" edge="1" parent="1" source="rknLdEiRozt7GPBERz-3-3" target="CLhpaCxULuJum5mX2Jai-7">
          <mxGeometry relative="1" as="geometry">
            <Array as="points">
              <mxPoint x="235" y="260" />
              <mxPoint x="235" y="170" />
              <mxPoint x="190" y="170" />
            </Array>
          </mxGeometry>
        </mxCell>
        <mxCell id="rknLdEiRozt7GPBERz-3-3" value="CNI&lt;br&gt;Interface" style="rounded=0;whiteSpace=wrap;html=1;fillColor=#ffe6cc;strokeColor=#d79b00;" vertex="1" parent="1">
          <mxGeometry x="240" y="240" width="80" height="40" as="geometry" />
        </mxCell>
        <mxCell id="rknLdEiRozt7GPBERz-3-8" value="Pod" style="rounded=0;whiteSpace=wrap;html=1;fillColor=#dae8fc;strokeColor=#6c8ebf;" vertex="1" parent="1">
          <mxGeometry x="240" y="182.5" width="80" height="40" as="geometry" />
        </mxCell>
        <mxCell id="rknLdEiRozt7GPBERz-3-9" value="" style="rounded=0;whiteSpace=wrap;html=1;fillColor=none;dashed=1;" vertex="1" parent="1">
          <mxGeometry x="350" y="92.5" width="185" height="167.5" as="geometry" />
        </mxCell>
        <mxCell id="rknLdEiRozt7GPBERz-3-4" value="kube-Proxy" style="rounded=0;whiteSpace=wrap;html=1;fillColor=#ffe6cc;strokeColor=#d79b00;" vertex="1" parent="1">
          <mxGeometry x="360" y="240" width="80" height="40" as="geometry" />
        </mxCell>
        <mxCell id="rknLdEiRozt7GPBERz-3-16" value="client" style="rounded=0;whiteSpace=wrap;html=1;" vertex="1" parent="1">
          <mxGeometry x="120" y="540" width="40" height="20" as="geometry" />
        </mxCell>
        <mxCell id="rknLdEiRozt7GPBERz-3-17" value="" style="endArrow=none;html=1;rounded=0;" edge="1" parent="1">
          <mxGeometry width="50" height="50" relative="1" as="geometry">
            <mxPoint x="140" y="720" as="sourcePoint" />
            <mxPoint x="140" y="560" as="targetPoint" />
          </mxGeometry>
        </mxCell>
        <mxCell id="rknLdEiRozt7GPBERz-3-19" value="client" style="rounded=0;whiteSpace=wrap;html=1;" vertex="1" parent="1">
          <mxGeometry x="170" y="540" width="40" height="20" as="geometry" />
        </mxCell>
        <mxCell id="rknLdEiRozt7GPBERz-3-20" value="" style="endArrow=none;html=1;rounded=0;" edge="1" parent="1">
          <mxGeometry width="50" height="50" relative="1" as="geometry">
            <mxPoint x="190" y="720" as="sourcePoint" />
            <mxPoint x="190" y="560" as="targetPoint" />
          </mxGeometry>
        </mxCell>
        <mxCell id="rknLdEiRozt7GPBERz-3-21" value="client" style="rounded=0;whiteSpace=wrap;html=1;" vertex="1" parent="1">
          <mxGeometry x="220" y="540" width="40" height="20" as="geometry" />
        </mxCell>
        <mxCell id="rknLdEiRozt7GPBERz-3-22" value="" style="endArrow=none;html=1;rounded=0;" edge="1" parent="1">
          <mxGeometry width="50" height="50" relative="1" as="geometry">
            <mxPoint x="240" y="720" as="sourcePoint" />
            <mxPoint x="240" y="560" as="targetPoint" />
          </mxGeometry>
        </mxCell>
        <mxCell id="rknLdEiRozt7GPBERz-3-23" value="client" style="rounded=0;whiteSpace=wrap;html=1;" vertex="1" parent="1">
          <mxGeometry x="270" y="540" width="40" height="20" as="geometry" />
        </mxCell>
        <mxCell id="rknLdEiRozt7GPBERz-3-24" value="" style="endArrow=none;html=1;rounded=0;" edge="1" parent="1">
          <mxGeometry width="50" height="50" relative="1" as="geometry">
            <mxPoint x="290" y="720" as="sourcePoint" />
            <mxPoint x="290" y="560" as="targetPoint" />
          </mxGeometry>
        </mxCell>
      </root>
    </mxGraphModel>
  </diagram>
</mxfile>
